<svg xmlns="http://www.w3.org/2000/svg" xmlns:xlink="http://www.w3.org/1999/xlink" xmlns:svgjs="http://svgjs.com/svgjs" version="1.1" width="30" height="30" x="0" y="0" viewBox="0 0 128 128" style="enable-background:new 0 0 512 512" xml:space="preserve"><g><g xmlns="http://www.w3.org/2000/svg" id="Layer_2" fill="rgb(0,0,0)" data-name="Layer 2"><path d="m37.044 67.669-11.978-6.916a1.75 1.75 0 1 0 -1.75 3.031l11.978 6.916a1.75 1.75 0 1 0 1.75-3.031z" fill="#888888" data-original="#000000" style=""/><path d="m25.492 54.637a1.75 1.75 0 0 0 .876-3.266l-7.223-4.171a1.75 1.75 0 1 0 -1.75 3.031l7.223 4.17a1.736 1.736 0 0 0 .874.236z" fill="#888888" data-original="#000000" style=""/><path d="m51.919 66.124-11.345-6.551a1.75 1.75 0 1 0 -1.75 3.031l11.345 6.551a1.75 1.75 0 1 0 1.75-3.031z" fill="#888888" data-original="#000000" style=""/><path d="m118.785 31.359-53.91-31.125a1.753 1.753 0 0 0 -1.75 0l-53.91 31.125a1.75 1.75 0 0 0 -.875 1.516v62.25a1.75 1.75 0 0 0 .875 1.516l53.91 31.125a1.775 1.775 0 0 0 1.75 0l53.91-31.125a1.752 1.752 0 0 0 .875-1.516v-62.25a1.752 1.752 0 0 0 -.875-1.516zm-33.078 60.981a5.84 5.84 0 0 1 -11.614.88l9.419-5.438a5.848 5.848 0 0 1 2.195 4.558zm-62.507-16.85 9.474 5.47a5.542 5.542 0 0 1 -9.838-3.5 5.47 5.47 0 0 1 .364-1.97zm-11.36-10.599v-28.985l50.41 29.1v28.994zm53.91 29.109v-17.615l10.25-5.92a1.75 1.75 0 1 0 -1.75-3.031l-8.5 4.91v-7.333l50.41-29.1v28.98zm-1.75-90.229 50.41 29.1-50.41 29.108-50.41-29.1zm-52.16 65.162 8.308 4.8a8.93 8.93 0 0 0 -.815 3.729 9.022 9.022 0 0 0 16.372 5.253l26.545 15.322v25.182l-11.8-6.81a9.034 9.034 0 0 0 -15.64-9.03l-22.97-13.265zm26.008 40.2a5.538 5.538 0 0 1 9.582 5.532zm27.9-11.093 5.18-2.99a9.335 9.335 0 1 0 15.732-9.084l29.5-17.03v16.015a9.246 9.246 0 0 0 -1.955-.226 9.323 9.323 0 0 0 -7.519 14.859l-40.936 23.635zm43.988-.215a5.836 5.836 0 0 1 6.422-9.258v5.55z" fill="#888888" data-original="#000000" style=""/><path d="m104.478 61.079-11.007 6.355a1.75 1.75 0 0 0 1.75 3.031l11.007-6.355a1.75 1.75 0 0 0 -1.75-3.031z" fill="#888888" data-original="#000000" style=""/><path d="m98.813 55.275a1.748 1.748 0 0 0 -2.39-.64l-11.883 6.865a1.75 1.75 0 0 0 .877 3.266 1.73 1.73 0 0 0 .873-.235l11.883-6.86a1.75 1.75 0 0 0 .64-2.396z" fill="#888888" data-original="#000000" style=""/></g></g></svg>
