 <svg xmlns="http://www.w3.org/2000/svg" xmlns:xlink="http://www.w3.org/1999/xlink"
                    xmlns:svgjs="http://svgjs.com/svgjs" version="1.1" width="30" height="30" x="0" y="0"
                    viewBox="0 0 64 64" style="enable-background:new 0 0 512 512" xml:space="preserve" class="">
                    <g>
                        <path xmlns="http://www.w3.org/2000/svg"
                            d="M57.5,21.37891V5A4.50491,4.50491,0,0,0,53,.5H11A4.50491,4.50491,0,0,0,6.5,5V21.37891L.93945,26.93945A1.50062,1.50062,0,0,0,.5,28V59A4.50491,4.50491,0,0,0,5,63.5H59A4.50491,4.50491,0,0,0,63.5,59V28a1.50062,1.50062,0,0,0-.43945-1.06055Zm3,7.24218v2.47907l-3,1.6v-7.079ZM9.5,5A1.50164,1.50164,0,0,1,11,3.5H53A1.50164,1.50164,0,0,1,54.5,5V34.30011L32,46.2998,9.5,34.30011Zm-3,20.62109v7.079l-3-1.6V28.62109ZM59,60.5H5A1.50164,1.50164,0,0,1,3.5,59V34.49982L31.294,49.32324a1.49856,1.49856,0,0,0,1.4121,0L60.5,34.49982V59A1.50164,1.50164,0,0,1,59,60.5Z"
                            fill="#888888" data-original="#000000" style="" class="" />
                        <path xmlns="http://www.w3.org/2000/svg"
                            d="M42,11.5h7.5a1.5,1.5,0,0,0,0-3H42a1.5,1.5,0,0,0,0,3Z" fill="#888888"
                            data-original="#000000" style="" class="" />
                        <path xmlns="http://www.w3.org/2000/svg"
                            d="M42,17.5h7.5a1.5,1.5,0,0,0,0-3H42a1.5,1.5,0,0,0,0,3Z" fill="#888888"
                            data-original="#000000" style="" class="" />
                        <path xmlns="http://www.w3.org/2000/svg"
                            d="M42,23.5h7.5a1.5,1.5,0,0,0,0-3H42a1.5,1.5,0,0,0,0,3Z" fill="#888888"
                            data-original="#000000" style="" class="" />
                        <path xmlns="http://www.w3.org/2000/svg"
                            d="M42,29.5h7.5a1.5,1.5,0,0,0,0-3H42a1.5,1.5,0,0,0,0,3Z" fill="#888888"
                            data-original="#000000" style="" class="" />
                        <circle xmlns="http://www.w3.org/2000/svg" cx="25" cy="18" r="3.5" style="" fill="#888888"
                            data-original="#3e3ef4" class="" />
                        <path xmlns="http://www.w3.org/2000/svg"
                            d="M37.5,30V10A3.50424,3.50424,0,0,0,34,6.5H16A3.50424,3.50424,0,0,0,12.5,10V30A3.50424,3.50424,0,0,0,16,33.5H34A3.50424,3.50424,0,0,0,37.5,30Zm-6.5.5A1.50039,1.50039,0,0,1,29.5,29a4.5,4.5,0,0,0-9,0,1.5,1.5,0,0,1-3,0,7.49165,7.49165,0,0,1,3.202-6.137,6.5,6.5,0,1,1,8.59606,0A7.49165,7.49165,0,0,1,32.5,29,1.50038,1.50038,0,0,1,31,30.5Z"
                            style="" fill="#888888" data-original="#3e3ef4" class="" />
                    </g>
                </svg>