<?xml version="1.0"?>
<svg xmlns="http://www.w3.org/2000/svg" xmlns:xlink="http://www.w3.org/1999/xlink" xmlns:svgjs="http://svgjs.com/svgjs" version="1.1" width="30" height="30" x="0" y="0" viewBox="0 0 74 74" style="enable-background:new 0 0 512 512" xml:space="preserve"><g><path xmlns="http://www.w3.org/2000/svg" d="M41.28,72H32.72a2.018,2.018,0,0,1-1.957-1.588l-.927-4.627a29.478,29.478,0,0,1-8.118-3.372l-3.924,2.609a2,2,0,0,1-2.51-.234L9.232,58.727A2.007,2.007,0,0,1,9,56.19l2.6-3.9a29.206,29.206,0,0,1-3.369-8.124L3.6,43.24A2.022,2.022,0,0,1,2,41.28V32.72a2.018,2.018,0,0,1,1.588-1.957l4.636-.93a29.231,29.231,0,0,1,3.368-8.123L8.978,17.8a2,2,0,0,1,.234-2.512l6.061-6.06a2.006,2.006,0,0,1,2.536-.236l3.9,2.605a29.46,29.46,0,0,1,8.125-3.377L30.76,3.6A2.022,2.022,0,0,1,32.72,2h8.56a2.018,2.018,0,0,1,1.957,1.588l.927,4.627A29.282,29.282,0,0,1,52.3,11.594L56.2,8.979a1.994,1.994,0,0,1,2.512.234l6.061,6.06a2,2,0,0,1,.236,2.536l-2.6,3.909a29.428,29.428,0,0,1,3.372,8.117l4.611.925A2.022,2.022,0,0,1,72,32.72v8.56a2.018,2.018,0,0,1-1.588,1.957l-4.627.928a29.428,29.428,0,0,1-3.372,8.117l2.61,3.924a2,2,0,0,1-.235,2.51l-6.061,6.061a2.009,2.009,0,0,1-2.536.236l-3.9-2.607a29.282,29.282,0,0,1-8.131,3.379L43.24,70.4A2.022,2.022,0,0,1,41.28,72ZM21.7,60.223a.987.987,0,0,1,.529.152,27.466,27.466,0,0,0,8.685,3.609,1,1,0,0,1,.76.78L32.721,70l8.55,0,1.058-5.236a1,1,0,0,1,.761-.78,27.28,27.28,0,0,0,8.682-3.608,1.034,1.034,0,0,1,1.1.013l4.439,2.97,6.048-6.046-2.916-4.375a.979.979,0,0,1-.1-.146,1,1,0,0,1,.026-1.017,27.439,27.439,0,0,0,3.609-8.685,1,1,0,0,1,.78-.76L70,41.279l0-8.559-5.236-1.05a1,1,0,0,1-.78-.76,27.439,27.439,0,0,0-3.609-8.685,1,1,0,0,1-.031-1.017.965.965,0,0,1,.125-.178l2.888-4.343-6.045-6.05-4.436,2.974a1.034,1.034,0,0,1-1.1.013,27.28,27.28,0,0,0-8.682-3.608,1,1,0,0,1-.761-.78L41.279,4,32.72,4,31.671,9.236a1,1,0,0,1-.76.78,27.466,27.466,0,0,0-8.685,3.609,1,1,0,0,1-1.09-.013l-4.45-2.97-6.049,6.045,2.975,4.448a1,1,0,0,1,.013,1.09,27.276,27.276,0,0,0-3.6,8.682,1,1,0,0,1-.84.774L4,32.721,4,41.28l5.219,1.046a1.008,1.008,0,0,1,.807.767,27.278,27.278,0,0,0,3.6,8.682,1,1,0,0,1-.012,1.089l-2.96,4.449,6.035,6.051,4.375-2.918a1.015,1.015,0,0,1,.634-.223Z" fill="#686868" data-original="#000000" style=""/><path xmlns="http://www.w3.org/2000/svg" d="M55.041,29.42a1,1,0,0,1-.906-.576,18.434,18.434,0,0,0-1.461-2.54,1,1,0,0,1,1.652-1.128A20.2,20.2,0,0,1,55.945,28a1,1,0,0,1-.481,1.329A.983.983,0,0,1,55.041,29.42Z" fill="#686868" data-original="#000000" style=""/><path xmlns="http://www.w3.org/2000/svg" d="M37,57.97a20.97,20.97,0,0,1,0-41.94c.6,0,1.136.024,1.648.075a1,1,0,0,1,.906,1.044,1.015,1.015,0,0,1-1.1.946c-.446-.044-.921-.065-1.451-.065A18.975,18.975,0,1,0,55.97,37a17.079,17.079,0,0,0-.159-2.407,1,1,0,1,1,1.978-.286A18.857,18.857,0,0,1,57.97,37,20.962,20.962,0,0,1,37,57.97Z" fill="#686868" data-original="#000000" style=""/><path xmlns="http://www.w3.org/2000/svg" d="M48.569,21.73a.987.987,0,0,1-.591-.2,16.136,16.136,0,0,0-2.4-1.449,1,1,0,0,1,.887-1.793,18.031,18.031,0,0,1,2.7,1.632,1,1,0,0,1-.594,1.8Z" fill="#686868" data-original="#000000" style=""/><path xmlns="http://www.w3.org/2000/svg" d="M53.991,48.5a1,1,0,0,1-.85-.473,18.977,18.977,0,0,0-32.282,0,1,1,0,1,1-1.7-1.054,20.976,20.976,0,0,1,35.68,0,1,1,0,0,1-.849,1.527Z" fill="#686868" data-original="#000000" style=""/><path xmlns="http://www.w3.org/2000/svg" d="M37,39.036a7.245,7.245,0,1,1,7.245-7.244A7.253,7.253,0,0,1,37,39.036Zm0-12.489a5.245,5.245,0,1,0,5.245,5.245A5.25,5.25,0,0,0,37,26.547Z" fill="#686868" data-original="#000000" style=""/></g></svg>
