                <svg xmlns="http://www.w3.org/2000/svg" xmlns:xlink="http://www.w3.org/1999/xlink" xmlns:svgjs="http://svgjs.com/svgjs" version="1.1" width="30" height="30" x="0" y="0" viewBox="0 0 486 486.066" style="enable-background:new 0 0 512 512" xml:space="preserve" class=""><g><path xmlns="http://www.w3.org/2000/svg" d="m243.03125 244.132812c-17.671875 0-32 14.324219-32 32 0 17.671876 14.328125 32 32 32 17.675781 0 32-14.328124 32-32-.019531-17.664062-14.332031-31.980468-32-32zm0 48c-8.835938 0-16-7.164062-16-16 0-8.835937 7.164062-16 16-16 8.839844 0 16 7.164063 16 16-.007812 8.832032-7.167969 15.988282-16 16zm0 0" fill="#888888" data-original="#000000" style="" class=""/><path xmlns="http://www.w3.org/2000/svg" d="m478.03125 326.066406h-127v-35.492187l11.835938 12c1.484374 1.503906 3.507812 2.347656 5.617187 2.347656s4.132813-.84375 5.617187-2.347656l21.621094-21.660157c1.496094-1.503906 2.332032-3.539062 2.324219-5.65625.058594-2.101562-.730469-4.140624-2.1875-5.65625l-85.828125-85.988281v-67.191406l11.511719 11.679687c1.476562 1.492188 3.488281 2.335938 5.585937 2.34375 2.097656.007813 4.117188-.820312 5.601563-2.300781l16.601562-16.402343c1.511719-1.5 2.363281-3.542969 2.363281-5.675782.003907-2.128906-.84375-4.171875-2.351562-5.679687l-98.054688-98.042969c-3.128906-3.125-8.191406-3.125-11.320312 0l-103.234375 103.230469c-1.507813 1.507812-2.351563 3.554687-2.34375 5.6875.007813 2.132812.863281 4.171875 2.382813 5.667969l16.640624 16.402343c1.496094 1.476563 3.511719 2.300781 5.613282 2.296875 2.074218.003906 4.058594-.84375 5.492187-2.339844l11.511719-11.679687v69.742187l-85.816406 85.984376c-1.476563 1.507812-2.289063 3.542968-2.257813 5.65625.015625 2.125.875 4.160156 2.386719 5.65625l21.679688 21.664062c1.503906 1.5 3.542968 2.34375 5.667968 2.339844 2.078125.003906 4.0625-.84375 5.5-2.339844l11.839844-12v27.753906h-127c-4.429688.03125-8.0039062 3.632813-8 8.066406v144c.0039062 2.113282.851562 4.140626 2.351562 5.628907s3.535157 2.320312 5.648438 2.304687h470c2.117188.015625 4.148438-.816406 5.652344-2.304687 1.5-1.488281 2.347656-3.515625 2.347656-5.628907v-144c.007812-4.433593-3.566406-8.035156-8-8.066406zm-319.039062-209.710937-5.242188-5.164063 91.875-91.878906 86.691406 86.691406-5.242187 5.167969-75.792969-75.792969c-3.121094-3.125-8.1875-3.125-11.3125 0zm33.039062-10.746094 53.59375-53.257813 48.40625 48.070313v67.191406l-41.304688-41.136719c-3.222656-3.125-8.34375-3.125-11.566406 0l-49.128906 48.875zm-74.328125 187.730469-10.347656-10.347656 139.546875-139.546876 131.808594 131.808594-10.347657 10.351563-115.800781-115.800781c-3.125-3.125-8.1875-3.125-11.3125 0zm-101.671875 48.726562h119v128h-119zm247 128h-40v-62.757812c0-11.046875 8.957031-20 20-20 11.046875 0 20 8.953125 20 20zm16 0v-62.757812c0-19.882813-16.117188-36-36-36-19.878906 0-36 16.117187-36 36v62.757812h-56v-187.753906l95.871094-95.546875 88.128906 87.808594v195.492187zm191 0h-119v-128h119zm0 0" fill="#888888" data-original="#000000" style="" class=""/><path xmlns="http://www.w3.org/2000/svg" d="m36.03125 366.066406h29v16h-29zm0 0" fill="#888888" data-original="#000000" style="" class=""/><path xmlns="http://www.w3.org/2000/svg" d="m86.03125 366.066406h29v16h-29zm0 0" fill="#888888" data-original="#000000" style="" class=""/><path xmlns="http://www.w3.org/2000/svg" d="m36.03125 402.066406h29v16h-29zm0 0" fill="#888888" data-original="#000000" style="" class=""/><path xmlns="http://www.w3.org/2000/svg" d="m86.03125 402.066406h29v16h-29zm0 0" fill="#888888" data-original="#000000" style="" class=""/><path xmlns="http://www.w3.org/2000/svg" d="m36.03125 438.066406h29v16h-29zm0 0" fill="#888888" data-original="#000000" style="" class=""/><path xmlns="http://www.w3.org/2000/svg" d="m86.03125 438.066406h29v16h-29zm0 0" fill="#888888" data-original="#000000" style="" class=""/><path xmlns="http://www.w3.org/2000/svg" d="m371.03125 366.066406h29v16h-29zm0 0" fill="#888888" data-original="#000000" style="" class=""/><path xmlns="http://www.w3.org/2000/svg" d="m421.03125 366.066406h29v16h-29zm0 0" fill="#888888" data-original="#000000" style="" class=""/><path xmlns="http://www.w3.org/2000/svg" d="m371.03125 402.066406h29v16h-29zm0 0" fill="#888888" data-original="#000000" style="" class=""/><path xmlns="http://www.w3.org/2000/svg" d="m421.03125 402.066406h29v16h-29zm0 0" fill="#888888" data-original="#000000" style="" class=""/><path xmlns="http://www.w3.org/2000/svg" d="m371.03125 438.066406h29v16h-29zm0 0" fill="#888888" data-original="#000000" style="" class=""/><path xmlns="http://www.w3.org/2000/svg" d="m421.03125 438.066406h29v16h-29zm0 0" fill="#888888" data-original="#000000" style="" class=""/></g></svg>
