<?xml version="1.0"?>
<svg xmlns="http://www.w3.org/2000/svg" xmlns:xlink="http://www.w3.org/1999/xlink" xmlns:svgjs="http://svgjs.com/svgjs" version="1.1" width="30" height="30" x="0" y="0" viewBox="0 0 512 512" style="enable-background:new 0 0 512 512" xml:space="preserve" class=""><g>
<g xmlns="http://www.w3.org/2000/svg">
	<g>
		<path d="M437.019,74.981C388.667,26.628,324.38,0,256,0S123.333,26.628,74.981,74.981C26.628,123.333,0,187.62,0,256    s26.628,132.667,74.981,181.02C123.333,485.371,187.62,512,256,512s132.667-26.629,181.019-74.98    C485.372,388.667,512,324.38,512,256S485.372,123.333,437.019,74.981z M256,492C125.869,492,20,386.131,20,256S125.869,20,256,20    s236,105.869,236,236S386.131,492,256,492z" fill="#ffffff" data-original="#000000" style=""/>
	</g>
</g>
<g xmlns="http://www.w3.org/2000/svg">
	<g>
		<path d="M398.834,113.164c-78.759-78.759-206.91-78.759-285.671,0c-32.554,32.555-52.549,73.885-57.822,119.523    c-5.116,44.27,4.669,89.551,27.55,127.504c2.852,4.728,8.997,6.253,13.727,3.401c4.73-2.852,6.253-8.999,3.401-13.728    c-43.244-71.729-32.023-163.248,27.287-222.559c70.962-70.962,186.426-70.962,257.387,0c70.962,70.962,70.962,186.426,0,257.387    c-59.973,59.975-152.179,70.776-224.23,26.267c-4.698-2.902-10.86-1.446-13.763,3.252c-2.903,4.7-1.447,10.861,3.252,13.764    c31.796,19.642,68.841,30.011,106.249,30.011c7.352,0,14.724-0.4,22.064-1.21c45.393-5.006,88.212-25.584,120.569-57.94    C477.594,320.076,477.594,191.924,398.834,113.164z" fill="#ffffff" data-original="#000000" style=""/>
	</g>
</g>
<g xmlns="http://www.w3.org/2000/svg">
	<g>
		<path d="M127.404,384.791l-0.147-0.148c-3.893-3.919-10.225-3.94-14.142-0.047c-3.918,3.893-3.939,10.225-0.046,14.143    l0.147,0.148c1.954,1.968,4.524,2.952,7.094,2.952c2.548,0,5.097-0.968,7.048-2.905    C131.276,395.041,131.297,388.709,127.404,384.791z" fill="#ffffff" data-original="#000000" style=""/>
	</g>
</g>
<g xmlns="http://www.w3.org/2000/svg">
	<g>
		<path d="M291.064,325.934H286v-89.83c0-16.542-13.458-30-30-30h-28c-16.542,0-30,13.458-30,30c0,15.87,12.387,28.901,28,29.934    v59.896h-5.065c-16.542,0-30,13.458-30,30s13.458,30,30,30h70.129c16.542,0,30-13.458,30-30S307.606,325.934,291.064,325.934z     M291.065,365.934h-70.129c-5.514,0-10-4.486-10-10c0-5.514,4.486-10,10-10v0H236c5.523,0,10-4.478,10-10v-79.83    c0-5.523-4.477-10-10-10h-8c-5.514,0-10-4.486-10-10c0-5.514,4.486-10,10-10h28c5.514,0,10,4.486,10,10v99.83    c0,5.522,4.477,10,10,10h15.065c5.514,0,10,4.486,10,10C301.065,361.448,296.579,365.934,291.065,365.934z" fill="#ffffff" data-original="#000000" style=""/>
	</g>
</g>
<g xmlns="http://www.w3.org/2000/svg">
	<g>
		<path d="M256,126.066c-16.542,0-30,13.458-30,30s13.458,30,30,30s30-13.458,30-30S272.542,126.066,256,126.066z M256,166.066    c-5.514,0-10-4.486-10-10s4.486-10,10-10c5.514,0,10,4.486,10,10S261.514,166.066,256,166.066z" fill="#ffffff" data-original="#000000" style=""/>
	</g>
</g>
<g xmlns="http://www.w3.org/2000/svg">
</g>
<g xmlns="http://www.w3.org/2000/svg">
</g>
<g xmlns="http://www.w3.org/2000/svg">
</g>
<g xmlns="http://www.w3.org/2000/svg">
</g>
<g xmlns="http://www.w3.org/2000/svg">
</g>
<g xmlns="http://www.w3.org/2000/svg">
</g>
<g xmlns="http://www.w3.org/2000/svg">
</g>
<g xmlns="http://www.w3.org/2000/svg">
</g>
<g xmlns="http://www.w3.org/2000/svg">
</g>
<g xmlns="http://www.w3.org/2000/svg">
</g>
<g xmlns="http://www.w3.org/2000/svg">
</g>
<g xmlns="http://www.w3.org/2000/svg">
</g>
<g xmlns="http://www.w3.org/2000/svg">
</g>
<g xmlns="http://www.w3.org/2000/svg">
</g>
<g xmlns="http://www.w3.org/2000/svg">
</g>
</g></svg>
